PathFileType	4	(X/Y/Z)	C:\Users\willi\Desktop\Data_PaperCallum_v2\17_Akif\Gait02\marker_experimental_temp.trc
DataRate	CameraRate	NumFrames	NumMarkers	Units	OrigDataRate	OrigDataStartFrame	OrigNumFrames
100.000000	100.000000	4	27	mm	100.000000	62	167
Frame#	Time	C7			T10			Clav			Sternum			Right_Back			PCL_CRAN			PCL_RECHTS			PCL_LINKS			RCL_UL_CRAN			RCL_UL_POST			RCL_UL_ANT			RCL_LL_CRAN			RCL_LL_POST			RCL_LL_ANT			Right_Heel			Right_Toe			Right_M5			LCL_UL_CRAN			LCL_UL_POST			LCL_UL_ANT			LCL_LL_CRAN			LCL_LL_POST			LCL_LL_ANT			Left_Heel			Left_Toe			Left_M5			*26			
		X1	Y1	Z1	X2	Y2	Z2	X3	Y3	Z3	X4	Y4	Z4	X5	Y5	Z5	X6	Y6	Z6	X7	Y7	Z7	X8	Y8	Z8	X9	Y9	Z9	X10	Y10	Z10	X11	Y11	Z11	X12	Y12	Z12	X13	Y13	Z13	X14	Y14	Z14	X15	Y15	Z15	X16	Y16	Z16	X17	Y17	Z17	X18	Y18	Z18	X19	Y19	Z19	X20	Y20	Z20	X21	Y21	Z21	X22	Y22	Z22	X23	Y23	Z23	X24	Y24	Z24	X25	Y25	Z25	X26	Y26	Z26	X27	Y27	Z27	

63	0.62	658.0111694335936	1376.963745117188	210.7660522460937	705.5117187499999	1162.052612304688	210.1920623779296	519.2020263671874	1295.799682617188	214.9897766113281	469.3562622070312	1129.737915039063	233.6645355224609	697.4080200195311	1313.009521484375	101.9592132568359	697.1913452148436	988.033203125	192.3573608398437	704.6298828124999	929.64794921875	166.4156341552734	710.978515625	928.15576171875	216.4601287841796	509.5470581054687	699.6116333007813	35.10576248168942	509.5486145019531	634.0402221679688	37.49914169311521	463.3299255371093	654.0082397460938	37.45323562622067	416.3756408691406	363.3877563476563	77.88431549072263	416.8060913085938	298.1735534667969	73.92933654785153	369.8203430175781	316.719970703125	81.49816131591794	342.5345153808594	18.81785774230959	161.4725341796875	163.4378509521484	86.98388671875001	150.462646484375	194.7165069580078	55.06521224975587	97.91910552978514	660.8575439453125	727.921142578125	377.1445922851562	687.7662353515625	669.210693359375	365.0704650878906	639.5943603515625	665.9049682617188	377.0514526367187	808.4445190429688	376.4758605957032	332.1517944335937	856.1649169921875	331.6846618652344	332.0575256347656	809.6869506835938	311.0439147949219	327.6815490722656	1011.467712402344	81.3927841186524	238.7334899902343	812.3648681640625	31.42191696166997	250.2549285888671	865.3761596679688	12.71269893646246	308.5993347167968	-88.05694580078149	726.4017333984375	-3209.2412109375	
64	0.63	643.2687988281249	1376.243408203125	209.850845336914	690.0489501953124	1161.177734375	209.8761138916015	504.1625671386718	1295.469360351563	214.2685546875	453.6962890624999	1129.644287109375	233.1442718505859	682.4314575195311	1311.852172851563	101.2278976440429	681.2474365234374	987.358154296875	192.4798431396484	688.6309814453124	929.11376953125	166.2225189208984	694.8629150390625	927.3223876953125	216.2028350830078	492.0046691894531	700.415771484375	35.36368942260739	491.1943054199218	634.9478759765625	38.71421432495114	445.2566528320312	655.4356079101563	38.77408599853513	400.70556640625	363.2612609863281	78.47050476074216	402.94873046875	297.6957702636719	75.45914459228513	355.3336486816406	315.6009826660156	83.11291503906247	338.5294799804688	19.63829994201662	162.038345336914	156.0498962402344	78.31377410888673	156.1521148681641	187.9767608642578	48.18152618408205	102.3793640136719	645.7144165039063	727.0673828125	377.1280517578124	672.903076171875	668.3401489257813	365.0997314453124	624.7945556640625	664.9053344726563	377.3967895507812	797.0726318359375	377.4786071777344	333.8439025878906	846.178466796875	334.0220031738282	333.6746826171874	800.28369140625	311.9810180664063	328.8037414550781	1008.544677734375	89.05978393554693	240.5960235595703	812.2766723632813	31.14805030822759	250.7229003906249	865.7717895507813	12.51730918884283	308.3287658691406	-88.0568008422854	726.4010009765625	-3209.23876953125	
65	0.64	628.4925537109374	1375.849243164063	208.9355926513672	674.5485229492186	1160.633056640625	209.605224609375	489.0948791503906	1295.493774414063	213.5643463134765	437.9694213867187	1129.931640625	232.6246490478515	667.3909301757811	1311.03173828125	100.4634552001953	665.2601318359374	987.0458374023438	192.6927795410156	672.5955810546874	928.9540405273438	166.0934600830078	678.6835327148438	926.829345703125	216.012222290039	474.5767211914062	701.7706298828125	35.5524978637695	473.1856689453124	636.4674682617188	39.86063385009763	427.4082336425781	657.4385375976563	40.15581893920896	385.3219909667969	363.5666809082031	78.66542053222653	389.3829956054688	297.8320007324219	76.57594299316403	341.236083984375	314.8833618164063	84.23950958251952	335.97705078125	20.93088912963869	162.1699829101562	149.9821166992188	69.18954467773439	160.7013244628906	183.0166931152344	40.88156890869142	105.8719177246094	629.9351196289063	726.31884765625	377.0743408203124	657.30126953125	667.5671997070313	365.1349487304687	609.2332763671875	664.0781860351563	377.6953735351562	784.7489013671875	378.7010192871094	335.8771667480468	835.3130493164063	336.7472229003907	335.4831848144531	790.1349487304688	313.2533264160157	330.1396789550781	1004.427490234375	97.70486450195318	242.4583740234374	812.3905639648438	30.7531070709229	251.2127227783203	866.3922729492188	12.41879463195806	307.8801574707031	-88.05666351318384	726.4002685546875	-3209.236572265625	
66	0.65	613.6924438476561	1375.78857421875	208.0325164794922	659.0389404296874	1160.431396484375	209.3729553222656	474.0152587890624	1295.87109375	212.8876037597656	422.2112426757812	1130.590698242188	232.1198425292968	652.3007202148436	1310.56396484375	99.67697906494136	649.2712402343749	987.0970458984375	192.9681091308593	656.5613403320311	929.1633911132813	166.0113983154297	662.486083984375	926.6824951171875	215.8732299804687	457.4236755371093	703.55615234375	35.58378982543942	455.7142333984374	638.4617309570313	40.73653793334958	409.9811096191406	659.8364868164063	41.38858413696286	370.2493896484375	364.2928161621094	78.47674560546872	375.9212341308594	298.6711120605469	76.9314041137695	327.4750671386719	314.6348266601563	84.8291549682617	334.3418884277344	22.52412605285647	161.8814086914062	144.9904022216797	60.37999343872071	163.9472198486328	179.4329528808594	33.7085418701172	108.2661361694336	613.5344848632813	725.6885986328125	376.9965820312499	640.9595947265625	666.916259765625	365.2278442382812	592.9038696289063	663.4509887695313	377.9671020507812	771.3087768554688	380.1405944824219	338.2739257812499	823.3756713867188	339.8822937011719	337.4852905273437	779.058349609375	314.9191589355469	331.7911682128906	998.7650756835938	107.3850250244141	244.2599945068359	812.74169921875	30.27286148071294	251.686538696289	867.1797485351563	12.56929874420171	307.2495727539062	-88.0565338134768	726.3995971679688	-3209.234375	
